<svg width="17" height="15" viewBox="0 0 17 15" fill="none" xmlns="http://www.w3.org/2000/svg">
<path d="M14.7344 0.96875H2.26562C1.71465 0.969339 1.18642 1.18847 0.79682 1.57807C0.407223 1.96767 0.188089 2.4959 0.1875 3.04688V11.9531C0.188089 12.5041 0.407223 13.0323 0.79682 13.4219C1.18642 13.8115 1.71465 14.0307 2.26562 14.0312H14.7344C15.2853 14.0307 15.8136 13.8115 16.2032 13.4219C16.5928 13.0323 16.8119 12.5041 16.8125 11.9531V3.04688C16.8119 2.4959 16.5928 1.96767 16.2032 1.57807C15.8136 1.18847 15.2853 0.969339 14.7344 0.96875ZM14.2082 4.40619L8.86441 8.56244C8.76021 8.64345 8.63199 8.68743 8.5 8.68743C8.36801 8.68743 8.23979 8.64345 8.13559 8.56244L2.79184 4.40619C2.72905 4.35878 2.67632 4.29936 2.63669 4.23139C2.59707 4.16342 2.57135 4.08825 2.56103 4.01026C2.55071 3.93226 2.556 3.85299 2.57658 3.77706C2.59716 3.70112 2.63262 3.63003 2.68092 3.56792C2.72921 3.50581 2.78936 3.45392 2.85788 3.41526C2.9264 3.37659 3.00193 3.35194 3.08006 3.34271C3.15819 3.33349 3.23738 3.33989 3.31302 3.36154C3.38866 3.38318 3.45924 3.41965 3.52066 3.46881L8.5 7.34154L13.4793 3.46881C13.6038 3.37478 13.7604 3.33354 13.915 3.35401C14.0697 3.37448 14.2101 3.455 14.3059 3.57818C14.4017 3.70135 14.4451 3.85727 14.4268 4.01222C14.4085 4.16717 14.33 4.3087 14.2082 4.40619Z" fill="black"/>
</svg>
