<svg width="35" height="29" viewBox="0 0 35 29" fill="none" xmlns="http://www.w3.org/2000/svg">
<path d="M34.5345 13.6533V0.22035C34.5345 0.0138502 34.272 -0.0806495 34.1425 0.0838505L19.4705 18.4238C19.4445 18.4561 19.4282 18.4951 19.4235 18.5363C19.4187 18.5774 19.4257 18.6191 19.4437 18.6564C19.4616 18.6938 19.4898 18.7253 19.5249 18.7473C19.56 18.7693 19.6006 18.7809 19.642 18.7808H30.2435C30.5305 18.7808 30.8 18.6514 30.9785 18.4273L34.328 14.2414C34.461 14.0733 34.5345 13.8668 34.5345 13.6533ZM0.2065 14.2414L11.228 28.0173C11.4065 28.2413 11.676 28.3708 11.963 28.3708H22.5645C22.75 28.3708 22.8515 28.1574 22.736 28.0139L0.392 0.0838505C0.2625 -0.0771495 0 0.0138502 0 0.22035V13.6533C0 13.8668 0.0735 14.0733 0.2065 14.2414Z" fill="white"/>
</svg>
