<svg width="17" height="17" viewBox="0 0 17 17" fill="none" xmlns="http://www.w3.org/2000/svg">
<path d="M11.3441 1.39652C10.6219 0.616856 9.61328 0.1875 8.5 0.1875C7.38078 0.1875 6.36881 0.614258 5.65 1.3891C4.9234 2.17248 4.56937 3.23715 4.6525 4.3868C4.81726 6.65492 6.54322 8.5 8.5 8.5C10.4568 8.5 12.1798 6.65529 12.3471 4.38754C12.4314 3.24828 12.0751 2.18584 11.3441 1.39652ZM15.0312 16.8125H1.96875C1.79777 16.8147 1.62845 16.7788 1.4731 16.7074C1.31775 16.6359 1.18029 16.5307 1.0707 16.3995C0.829491 16.1111 0.732264 15.7174 0.804256 15.3192C1.11746 13.5818 2.09492 12.1222 3.63125 11.0977C4.99613 10.1881 6.72506 9.6875 8.5 9.6875C10.2749 9.6875 12.0039 10.1885 13.3687 11.0977C14.9051 12.1219 15.8825 13.5814 16.1957 15.3188C16.2677 15.717 16.1705 16.1108 15.9293 16.3991C15.8197 16.5304 15.6823 16.6357 15.5269 16.7072C15.3716 16.7787 15.2023 16.8147 15.0312 16.8125Z" fill="black"/>
</svg>
