<svg width="15" height="19" viewBox="0 0 15 19" fill="none" xmlns="http://www.w3.org/2000/svg">
<path d="M11.6562 7.125H11.0625V4.15625C11.0625 3.21142 10.6872 2.30528 10.0191 1.63718C9.35097 0.969084 8.44483 0.59375 7.5 0.59375C6.55517 0.59375 5.64903 0.969084 4.98093 1.63718C4.31283 2.30528 3.9375 3.21142 3.9375 4.15625V7.125H3.34375C2.71407 7.12569 2.11038 7.37613 1.66513 7.82138C1.21988 8.26663 0.969438 8.87032 0.96875 9.5V16.0312C0.969438 16.6609 1.21988 17.2646 1.66513 17.7099C2.11038 18.1551 2.71407 18.4056 3.34375 18.4062H11.6562C12.2859 18.4056 12.8896 18.1551 13.3349 17.7099C13.7801 17.2646 14.0306 16.6609 14.0312 16.0312V9.5C14.0306 8.87032 13.7801 8.26663 13.3349 7.82138C12.8896 7.37613 12.2859 7.12569 11.6562 7.125ZM9.875 7.125H5.125V4.15625C5.125 3.52636 5.37522 2.92227 5.82062 2.47687C6.26602 2.03147 6.87011 1.78125 7.5 1.78125C8.12989 1.78125 8.73398 2.03147 9.17938 2.47687C9.62478 2.92227 9.875 3.52636 9.875 4.15625V7.125Z" fill="black"/>
</svg>
