<svg width="95" height="35" viewBox="0 0 95 35" fill="none" xmlns="http://www.w3.org/2000/svg">
<path d="M64.5345 16.6533V3.22035C64.5345 3.01385 64.272 2.91935 64.1425 3.08385L49.4705 21.4238C49.4445 21.4561 49.4282 21.4951 49.4235 21.5363C49.4187 21.5774 49.4257 21.6191 49.4437 21.6564C49.4616 21.6938 49.4898 21.7253 49.5249 21.7473C49.56 21.7693 49.6006 21.7809 49.642 21.7808H60.2435C60.5305 21.7808 60.8 21.6514 60.9785 21.4273L64.328 17.2414C64.461 17.0733 64.5345 16.8668 64.5345 16.6533ZM30.2065 17.2414L41.228 31.0173C41.4065 31.2413 41.676 31.3708 41.963 31.3708H52.5645C52.75 31.3708 52.8515 31.1574 52.736 31.0139L30.392 3.08385C30.2625 2.92285 30 3.01385 30 3.22035V16.6533C30 16.8668 30.0735 17.0733 30.2065 17.2414Z" fill="white"/>
</svg>
