<svg width="264" height="62" viewBox="0 0 264 62" fill="none" xmlns="http://www.w3.org/2000/svg">
<g clip-path="url(#clip0_152_77)">
<path fill-rule="evenodd" clip-rule="evenodd" d="M246 59.999V57.999H262V18.593L245.406 1.99899H2V41.855L18.269 57.999H219V59.999H17.769L0 42.23V-0.00100708H245.999L264 17.999V59.999H246ZM229.244 56.139C229.355 56.225 229.62 56.498 229.68 56.592C229.765 56.72 229.808 56.874 229.808 57.036V57.788C229.808 57.95 229.765 58.104 229.68 58.232C229.62 58.326 229.355 58.59 229.244 58.676C229.107 58.778 228.937 58.838 228.766 58.838L230.038 61.101H229.475L228.211 58.838H226.93V61.101H226.434V55.977H228.74C228.919 55.977 229.107 56.037 229.244 56.139ZM226.93 56.455V58.36H228.732C228.783 58.36 228.834 58.351 228.877 58.326C229.013 58.249 229.218 58.061 229.295 57.916C229.312 57.882 229.312 57.822 229.312 57.771V57.053C229.312 57.002 229.312 56.942 229.295 56.908C229.218 56.763 229.013 56.558 228.877 56.481C228.834 56.455 228.783 56.455 228.732 56.455H226.93ZM234.596 56.874C234.519 56.729 234.323 56.532 234.186 56.455C234.143 56.43 234.092 56.421 234.041 56.421H233.11C233.067 56.421 233.007 56.43 232.982 56.447C232.802 56.541 232.512 56.857 232.41 57.096L231.923 56.951C231.974 56.831 232.051 56.703 232.111 56.618C232.23 56.455 232.461 56.191 232.64 56.08C232.76 56.003 232.948 55.943 233.084 55.943H234.049C234.229 55.943 234.425 56.003 234.562 56.105C234.673 56.191 234.929 56.464 234.989 56.558C235.074 56.686 235.117 56.84 235.117 57.002V57.6C235.117 57.958 234.878 58.24 234.579 58.403L232.794 59.359C232.64 59.444 232.521 59.59 232.521 59.76V60.623H235.049V61.101H232.025V59.718C232.025 59.359 232.239 59.103 232.572 58.924L234.365 57.967C234.511 57.89 234.622 57.745 234.622 57.574V57.019C234.622 56.968 234.613 56.908 234.596 56.874ZM238.032 60.64C238.058 60.657 238.118 60.666 238.16 60.666H239.117C239.168 60.666 239.228 60.657 239.271 60.632C239.407 60.555 239.595 60.358 239.672 60.213C239.689 60.179 239.698 60.128 239.698 60.076V59.103C239.698 59.052 239.689 58.992 239.672 58.958C239.595 58.812 239.407 58.625 239.271 58.548C239.228 58.522 239.168 58.514 239.117 58.514H237.221V55.977H239.928V56.455H237.716V58.035H239.125C239.305 58.035 239.501 58.104 239.638 58.206C239.749 58.292 240.005 58.548 240.065 58.642C240.15 58.77 240.193 58.924 240.193 59.086V60.085C240.193 60.247 240.15 60.401 240.065 60.529C240.005 60.623 239.749 60.896 239.638 60.982C239.501 61.084 239.305 61.144 239.125 61.144H238.135C237.998 61.144 237.81 61.084 237.691 61.007C237.511 60.896 237.281 60.64 237.161 60.478C237.101 60.392 237.016 60.256 236.965 60.136L237.46 60C237.58 60.23 237.853 60.546 238.032 60.64Z" fill="#00F0FF"/>
</g>
<defs>
<clipPath id="clip0_152_77">
<rect width="264" height="62" fill="white"/>
</clipPath>
</defs>
</svg>
